<?xml version="1.0" encoding="UTF-8"?>
<svg width="469px" height="437px" viewBox="0 0 469 437" version="1.1" xmlns="http://www.w3.org/2000/svg" xmlns:xlink="http://www.w3.org/1999/xlink">
    <!-- Generator: Sketch 46.2 (44496) - http://www.bohemiancoding.com/sketch -->
    <title>HitBTC</title>
    <desc>Created with Sketch.</desc>
    <defs></defs>
    <g id="Page-1" stroke="none" stroke-width="1" fill="none" fill-rule="evenodd">
        <g id="HitBTC">
            <polygon id="Stroke-1" fill="#56B9E4" points="168.15 91.7893 148.067 176.7893 0.15 196.7893"></polygon>
            <polygon id="Stroke-3" fill="#78CDF1" points="292.15 106.7893 168.15 91.7893 148.067 176.7893"></polygon>
            <polygon id="Stroke-4" fill="#4EAEE3" points="109.1505 258.7893 148.0675 176.7893 0.1505 196.7893"></polygon>
            <polygon id="Stroke-6" fill="#3276A7" points="209.15 436.7893 199.317 261.2893 109.15 258.7893"></polygon>
            <polygon id="Stroke-9" fill="#3E8DBC" points="250.817 176.7893 199.317 261.2893 148.067 176.7893"></polygon>
            <polygon id="Stroke-10" fill="#3377A7" points="246.817 282.0393 250.817 176.7893 199.317 261.2893"></polygon>
            <polygon id="Stroke-11" fill="#215370" points="246.817 282.0393 209.15 436.7893 199.317 261.2893"></polygon>
            <polygon id="Stroke-13" fill="#56B9E5" points="292.15 106.7893 250.817 176.7893 148.067 176.7893"></polygon>
            <polygon id="Stroke-14" fill="#47A0CA" points="341.15 199.7893 349.121 143.0573 250.817 176.7893"></polygon>
            <polygon id="Stroke-15" fill="#2C698D" points="342.15 379.7893 250.817 176.7893 246.817 282.0393"></polygon>
            <polygon id="Stroke-16" fill="#3377A7" points="409.15 336.7893 391.15 325.7893 342.15 379.7893"></polygon>
            <polygon id="Stroke-17" fill="#56B9E4" points="341.15 199.7893 414.15 321.7893 391.15 325.7893"></polygon>
            <polygon id="Stroke-18" fill="#48A1CB" points="342.15 379.7893 341.15 199.7893 391.15 325.7893"></polygon>
            <polygon id="Stroke-19" fill="#78CDF1" points="414.15 321.7893 389.15 224.7893 356.109 224.7893"></polygon>
            <polygon id="Stroke-20" fill="#8ADAFD" points="394.15 218.7893 349.121 143.0573 341.15 199.7893"></polygon>
            <polygon id="Stroke-21" fill="#79CDF1" points="303.817 86.0393 349.121 143.0573 250.817 176.7893"></polygon>
            <polygon id="Stroke-22" fill="#56B9E4" points="355.15 58.7893 349.121 143.0573 303.817 86.0393"></polygon>
            <polygon id="Stroke-23" fill="#79CDF1" points="355.15 58.7893 426.558 52.2823 349.121 143.0573"></polygon>
            <polygon id="Stroke-24" fill="#79CDF1" points="468.443 0.3049 426.558 52.2829 460.3 55.9409"></polygon>
            <polygon id="Stroke-26" fill="#4CABE7" points="460.3004 55.9412 426.5584 52.2822 387.5444 98.0162"></polygon>
            <polygon id="Path-2" fill="#3E8DBC" points="250.836037 176.785253 341.202204 199.488376 342.147982 379.731686"></polygon>
            <polygon id="Path-3" fill="#459EE1" points="148.087387 176.772841 109.148667 258.803259 199.544623 261.386895"></polygon>
        </g>
    </g>
</svg>